<?xml version="1.0" standalone="no"?>
<!DOCTYPE svg PUBLIC "-//W3C//DTD SVG 20010904//EN"
 "http://www.w3.org/TR/2001/REC-SVG-20010904/DTD/svg10.dtd">
<svg version="1.0" xmlns="http://www.w3.org/2000/svg"
 width="896.000000pt" height="896.000000pt" viewBox="0 0 896.000000 896.000000"
 preserveAspectRatio="xMidYMid meet">
<metadata>
Created by potrace 1.14, written by Peter Selinger 2001-2017
</metadata>
<g transform="translate(0.000000,896.000000) scale(0.100000,-0.100000)"
fill="#000000" stroke="none">
<path d="M3728 8955 c-2 -2 -42 -6 -88 -9 -84 -6 -98 -7 -215 -22 -107 -13
-136 -18 -222 -34 -31 -5 -59 -8 -61 -5 -3 3 -10 1 -16 -4 -6 -5 -27 -11 -46
-14 -19 -2 -84 -17 -144 -32 -59 -14 -116 -28 -125 -30 -41 -9 -286 -87 -303
-96 -11 -6 -29 -12 -41 -14 -12 -3 -40 -12 -62 -21 -63 -26 -115 -46 -125 -49
-3 0 -19 -8 -36 -18 -17 -9 -34 -13 -38 -10 -3 4 -6 1 -6 -5 0 -7 -7 -12 -15
-12 -8 0 -23 -4 -33 -10 -9 -5 -76 -38 -149 -74 -147 -72 -178 -89 -413 -224
-91 -53 -194 -112 -230 -133 -36 -20 -65 -43 -66 -50 0 -8 8 -26 18 -41 10
-14 18 -28 18 -31 0 -3 18 -35 40 -71 22 -36 40 -70 40 -76 0 -5 4 -10 9 -10
5 0 11 -8 14 -17 3 -10 19 -40 35 -68 202 -348 242 -417 242 -426 0 -4 4 -9 8
-11 5 -1 15 -15 23 -29 8 -15 26 -49 42 -78 15 -28 31 -51 35 -50 4 0 19 8 34
17 24 15 164 97 243 142 17 10 57 33 90 53 264 155 510 268 745 341 137 43
184 57 205 61 11 2 47 11 80 19 33 8 76 17 95 20 19 3 60 10 90 16 56 11 81
15 160 25 269 33 588 33 840 0 168 -22 205 -29 390 -71 14 -3 32 -7 40 -9 8
-2 15 -4 15 -5 0 -2 8 -4 55 -13 14 -3 54 -15 90 -27 36 -12 70 -23 75 -25 6
-1 19 -5 30 -9 11 -5 45 -17 75 -28 30 -11 67 -26 83 -34 15 -9 27 -13 27 -9
0 3 23 -6 50 -20 28 -14 50 -23 50 -19 0 3 7 -2 16 -10 8 -9 23 -16 31 -16 9
0 24 -7 34 -16 9 -8 24 -16 32 -18 33 -5 289 -152 405 -232 35 -24 65 -44 67
-44 3 0 14 -8 24 -17 11 -10 26 -22 33 -28 7 -5 40 -30 73 -55 33 -25 65 -49
71 -55 178 -155 292 -268 434 -431 34 -39 172 -222 196 -259 10 -16 27 -39 36
-49 10 -11 18 -26 18 -33 0 -7 5 -13 10 -13 6 0 10 -5 10 -12 0 -6 11 -26 25
-44 14 -18 25 -36 25 -39 0 -4 9 -20 21 -36 11 -16 17 -29 12 -29 -4 0 -3 -4
4 -8 10 -6 153 -282 153 -295 0 -3 13 -34 29 -69 33 -73 142 -393 155 -458 8
-38 23 -97 32 -125 1 -5 10 -50 18 -100 8 -49 17 -100 20 -112 3 -12 7 -46 11
-75 3 -29 8 -66 10 -83 12 -87 22 -418 15 -515 -1 -21 -3 -19 -16 14 -8 22
-16 49 -19 60 -10 50 -14 66 -40 146 -32 97 -94 266 -121 325 -10 22 -18 42
-19 45 -5 31 -176 355 -232 440 -13 19 -28 42 -33 50 -141 217 -310 422 -494
599 -136 130 -147 141 -152 141 -2 0 -13 9 -23 19 -43 43 -213 171 -321 243
-112 74 -248 158 -256 158 -2 0 -25 13 -51 28 -26 16 -51 29 -56 30 -4 1 -49
21 -100 46 -85 40 -208 94 -232 100 -5 2 -17 6 -25 9 -8 3 -58 20 -110 38 -52
17 -102 34 -110 37 -8 3 -19 6 -25 7 -5 2 -39 11 -75 20 -36 9 -73 19 -83 21
-10 2 -27 6 -37 9 -21 7 -53 14 -90 20 -14 2 -65 11 -115 20 -49 9 -106 19
-125 21 -19 2 -53 5 -75 8 -99 12 -251 19 -380 20 -131 0 -352 -11 -365 -19
-3 -1 -38 -6 -79 -9 -41 -4 -77 -9 -80 -10 -3 -2 -30 -7 -60 -10 -29 -4 -56
-8 -60 -10 -3 -2 -23 -7 -43 -10 -21 -3 -59 -11 -85 -17 -27 -6 -55 -13 -63
-14 -8 -1 -22 -5 -30 -8 -8 -4 -26 -8 -40 -11 -42 -8 -267 -79 -305 -96 -11
-5 -27 -11 -35 -12 -8 -2 -17 -5 -20 -8 -3 -3 -25 -13 -50 -22 -103 -38 -116
-44 -128 -55 -7 -7 -19 -13 -26 -13 -12 0 -87 -37 -231 -115 -81 -43 -189
-110 -248 -151 -26 -19 -50 -34 -53 -34 -3 0 -11 -6 -18 -12 -8 -7 -24 -20
-36 -28 -28 -19 -213 -165 -259 -205 -83 -72 -284 -278 -361 -370 -46 -55 -87
-101 -92 -103 -4 -2 -8 -8 -8 -13 0 -5 -22 -38 -48 -72 -52 -67 -142 -202
-188 -282 -16 -27 -34 -59 -41 -70 -6 -11 -44 -85 -83 -165 -39 -80 -75 -152
-80 -161 -8 -15 -51 -126 -70 -179 -5 -14 -15 -38 -21 -55 -7 -16 -13 -34 -15
-40 -2 -5 -15 -48 -29 -95 -15 -47 -28 -93 -30 -104 -3 -10 -11 -42 -19 -70
-8 -28 -24 -100 -36 -161 -26 -131 -27 -136 -45 -275 -27 -215 -27 -645 0
-830 2 -14 6 -47 9 -75 4 -27 8 -59 11 -71 3 -12 7 -39 11 -60 3 -21 10 -59
16 -84 6 -25 12 -54 13 -65 2 -11 8 -40 15 -65 7 -25 14 -52 16 -60 9 -42 46
-158 83 -265 24 -66 45 -130 48 -142 3 -13 9 -23 14 -23 5 0 9 -7 9 -15 0 -47
194 -418 301 -577 21 -31 39 -62 39 -67 0 -6 3 -11 8 -11 4 0 18 -17 32 -38
24 -36 114 -155 135 -178 5 -7 26 -31 45 -55 113 -139 387 -404 494 -479 12
-8 26 -19 33 -25 56 -48 277 -200 357 -244 20 -12 53 -31 74 -42 95 -55 297
-153 327 -159 6 -1 15 -5 20 -10 6 -5 39 -19 75 -33 36 -14 79 -31 95 -37 17
-7 35 -14 40 -16 6 -1 57 -19 115 -39 58 -20 112 -37 120 -39 8 -2 22 -6 30
-9 22 -8 195 -47 260 -58 207 -35 320 -43 615 -43 261 1 384 8 535 30 53 8 58
9 130 18 30 4 75 12 100 18 25 5 54 11 65 12 11 2 34 6 50 10 17 3 40 9 53 11
12 3 32 7 45 10 12 3 33 7 47 10 14 2 52 12 85 21 33 8 67 17 75 19 8 1 35 9
60 16 25 7 48 13 53 15 4 1 9 3 12 4 7 4 15 5 58 14 20 5 37 11 37 15 0 4 11
8 24 9 13 1 37 7 52 13 16 7 34 13 39 15 36 9 192 68 200 75 5 5 14 9 21 9 44
0 424 192 624 315 313 193 584 409 844 674 128 130 112 113 201 216 38 44 72
81 77 83 4 2 8 10 8 17 0 7 3 15 8 17 25 11 319 427 362 513 8 17 19 33 25 37
5 4 6 8 1 8 -5 0 -2 8 7 18 8 9 34 53 57 97 23 44 46 84 51 89 5 6 9 18 9 28
0 10 5 18 10 18 6 0 10 4 10 9 0 5 20 51 43 102 24 52 47 101 50 109 3 8 22
53 41 100 20 46 36 87 36 91 0 4 8 24 17 45 9 22 17 41 18 44 3 11 67 216 73
230 8 23 41 139 47 170 2 8 11 47 20 85 9 39 19 79 21 90 2 11 8 43 14 70 6
28 13 67 15 89 3 21 7 41 9 45 2 3 7 35 11 71 4 36 8 67 10 70 2 3 6 41 10 85
3 44 8 87 10 95 7 25 18 308 17 420 -1 106 -11 315 -18 380 -2 19 -6 67 -9
105 -3 39 -8 77 -11 85 -3 8 -8 35 -10 60 -3 25 -7 56 -10 70 -2 14 -7 43 -10
65 -4 22 -10 47 -15 56 -4 9 -6 19 -3 21 9 10 -104 455 -136 533 -8 20 -31 90
-36 110 -3 12 -40 105 -96 240 -42 100 -216 456 -228 465 -4 3 -20 30 -36 60
-16 30 -32 59 -37 65 -4 5 -39 59 -78 119 -60 92 -230 329 -249 346 -3 3 -39
46 -80 95 -104 125 -223 249 -415 430 -12 11 -45 40 -75 65 -30 25 -66 55 -80
67 -14 13 -63 52 -110 88 -47 36 -90 69 -97 75 -34 27 -293 196 -389 252 -93
55 -412 220 -437 226 -4 1 -24 9 -45 18 -139 60 -407 157 -467 170 -11 2 -31
8 -45 13 -44 16 -134 40 -175 47 -22 4 -44 9 -50 13 -5 3 -14 6 -20 7 -27 5
-73 13 -95 19 -14 3 -36 7 -50 10 -14 3 -34 7 -45 9 -11 2 -40 7 -65 11 -25 4
-54 9 -65 11 -10 2 -36 6 -57 9 -21 3 -57 8 -80 11 -24 3 -68 8 -98 10 -30 3
-73 7 -95 10 -47 6 -612 14 -617 9z m472 -3019 c36 -3 81 -8 100 -11 19 -3 49
-7 65 -9 188 -24 564 -145 725 -235 8 -4 47 -25 85 -46 39 -21 72 -41 75 -45
3 -4 15 -10 28 -14 12 -4 22 -11 22 -15 0 -5 14 -14 30 -21 17 -7 30 -16 30
-21 0 -5 5 -9 10 -9 25 0 226 -167 345 -286 111 -112 275 -310 275 -334 0 -5
4 -10 9 -10 5 0 13 -9 16 -20 3 -11 12 -26 18 -32 25 -26 168 -285 167 -303 0
-3 10 -26 24 -53 13 -26 27 -58 31 -72 4 -14 13 -38 21 -55 16 -37 80 -249 87
-290 3 -16 10 -52 16 -78 6 -26 14 -67 17 -90 2 -23 7 -55 10 -72 11 -61 15
-144 17 -290 1 -164 -7 -289 -26 -400 -3 -16 -8 -46 -11 -65 -3 -19 -19 -87
-35 -150 -17 -63 -33 -125 -36 -138 -3 -12 -14 -44 -24 -70 -10 -26 -20 -51
-21 -57 -3 -15 -15 -45 -35 -90 -10 -22 -19 -42 -20 -45 -1 -3 -11 -25 -23
-50 -24 -51 -25 -49 -42 65 -28 183 -85 367 -173 555 -36 77 -115 221 -140
254 -159 217 -157 215 -260 326 -69 73 -215 200 -302 260 -27 19 -51 38 -53
43 -2 4 -7 7 -12 7 -5 0 -44 22 -87 48 -43 26 -103 60 -133 74 -101 49 -190
87 -190 82 0 -2 -11 3 -25 12 -14 9 -25 13 -25 10 0 -4 -6 -4 -12 1 -7 4 -15
8 -18 8 -3 0 -18 5 -35 11 -84 31 -190 56 -330 79 -72 12 -99 15 -210 20 -60
3 -111 8 -113 10 -2 2 -17 -1 -33 -5 -17 -5 -31 -5 -35 1 -3 5 -9 7 -13 5 -4
-3 -44 -8 -87 -11 -43 -3 -91 -8 -105 -11 -15 -2 -46 -6 -70 -9 -23 -3 -61
-10 -83 -15 -23 -5 -54 -11 -71 -14 -16 -3 -68 -17 -115 -31 -47 -15 -94 -28
-104 -30 -11 -3 -24 -9 -30 -15 -5 -5 -17 -10 -26 -10 -25 0 -242 -103 -337
-161 -83 -49 -198 -129 -252 -174 -133 -110 -253 -231 -341 -345 -19 -25 -37
-47 -40 -50 -41 -39 -230 -364 -230 -397 0 -7 -4 -13 -9 -13 -5 0 -11 -10 -14
-23 -3 -12 -18 -53 -32 -92 -27 -69 -81 -244 -90 -294 -3 -14 -8 -41 -11 -60
-3 -18 -8 -43 -10 -55 -3 -11 -7 -41 -10 -66 -3 -25 -7 -54 -9 -65 -2 -11 -4
-37 -4 -58 -1 -21 -5 -36 -10 -33 -20 12 -174 348 -186 406 -2 8 -11 35 -19
59 -14 39 -42 136 -51 181 -2 8 -8 35 -13 60 -6 25 -14 65 -17 90 -4 25 -9 56
-11 70 -9 55 -13 89 -19 185 -9 141 -11 195 -5 195 3 0 5 35 5 78 0 71 5 131
21 237 3 22 7 51 9 65 1 14 8 48 15 75 6 28 14 61 16 75 7 34 65 233 73 245 3
6 6 15 7 20 1 6 6 21 12 35 5 14 10 28 11 32 1 4 20 47 42 95 23 49 45 97 50
108 4 11 24 47 44 80 19 33 45 79 57 103 12 23 26 42 30 42 4 0 8 7 8 15 0 8
3 15 8 15 4 1 23 25 42 55 19 30 38 55 43 55 4 0 7 5 7 10 0 6 8 18 18 29 9
10 28 34 42 52 27 36 269 281 310 314 14 11 52 40 85 65 33 25 62 48 63 53 2
4 10 7 17 7 7 0 15 3 17 8 4 10 164 112 177 112 5 0 11 4 13 8 4 10 181 98
191 94 4 -1 7 3 7 8 0 6 7 10 15 10 8 0 23 4 33 10 44 24 232 92 232 84 0 -3
6 -2 13 3 6 4 14 8 17 9 3 0 25 6 50 14 25 7 54 14 65 16 11 1 35 7 53 13 18
5 35 10 37 10 3 0 18 2 33 5 73 14 143 23 242 32 41 3 76 7 77 8 4 4 288 -2
353 -8z m-74 -2680 c44 -4 96 -11 115 -16 18 -6 50 -13 69 -16 83 -14 253 -95
362 -174 70 -51 228 -207 228 -226 0 -7 4 -14 8 -16 14 -5 81 -116 114 -187
81 -176 117 -397 94 -573 -13 -102 -18 -126 -41 -204 -76 -253 -251 -480 -480
-621 -27 -17 -161 -82 -193 -94 -52 -20 -174 -49 -182 -44 -5 3 -11 2 -14 -3
-14 -23 -265 -21 -406 3 -64 11 -214 66 -291 107 -158 83 -325 235 -409 373
-13 22 -28 41 -32 43 -4 2 -8 10 -8 17 0 8 -9 29 -20 48 -17 28 -81 191 -79
200 0 1 -2 9 -5 17 -15 47 -32 198 -30 280 2 96 11 197 19 210 2 3 7 22 10 40
3 18 15 58 26 89 11 31 21 61 22 66 9 31 68 140 112 205 58 86 174 207 258
268 113 83 306 171 413 188 22 3 41 7 44 9 3 2 37 6 75 10 39 4 71 8 72 9 2 2
50 -1 149 -8z"/>
</g>
</svg>
